# This file uses centimeters as units for non-parametric coordinates.

mtllib trapdoor.mtl
g default
v 2.869160 -0.047418 -4.751666
v 4.865218 -0.047418 -2.755608
v 4.865218 0.536897 -2.755608
v 2.869160 0.536897 -4.751666
v -2.584172 -0.047418 4.693782
v -4.580230 -0.047418 2.697724
v -4.580230 0.536897 2.697724
v -2.584172 0.536897 4.693782
v 5.595826 -0.047418 -0.028942
v 5.595826 0.536897 -0.028942
v 0.142494 -0.047418 5.424390
v 0.142494 0.536897 5.424390
v 4.865218 -0.047418 2.697724
v 4.865218 0.536897 2.697724
v 2.869160 -0.047418 4.693782
v 2.869160 0.536897 4.693782
v 8.165451 -0.047418 8.292128
v 8.165451 -0.047418 -8.292128
v 8.165451 0.536897 -8.292128
v 8.165451 0.536897 8.292128
v -8.165451 -0.047418 8.292128
v -8.165451 0.536897 8.292128
v -5.310838 0.536897 -0.028942
v -8.165451 0.536897 -8.292128
v 0.142494 -0.047418 -5.482274
v 0.142494 0.536897 -5.482274
v -5.310838 -0.047418 -0.028942
v -2.584172 -0.047418 -4.751666
v -2.584172 0.536897 -4.751666
v -4.580230 -0.047418 -2.755608
v -4.580230 0.536897 -2.755608
v -8.165451 -0.047418 -8.292128
vt 0.395833 0.428665
vt 0.375000 0.428665
vt 0.375000 0.539961
vt 0.395833 0.539961
vt 0.520833 0.428665
vt 0.500000 0.428665
vt 0.500000 0.539961
vt 0.520833 0.539961
vt 0.625000 0.428665
vt 0.604167 0.428665
vt 0.604167 0.539961
vt 0.625000 0.539961
vt 0.541667 0.428665
vt 0.541667 0.539961
vt 0.583333 0.428665
vt 0.583333 0.539961
vt 0.562500 0.428665
vt 0.562500 0.539961
vt 0.625000 0.000000
vt 0.875000 0.000000
vt 0.875000 0.250000
vt 0.625000 0.250000
vt 0.375000 0.000000
vt 0.375000 0.250000
vt 0.585663 0.375436
vt 0.574479 0.334333
vt 0.543922 0.304243
vt 0.502181 0.293230
vt 0.460440 0.304243
vt 0.429884 0.334333
vt 0.418700 0.375436
vt 0.375000 0.500000
vt 0.460440 0.945757
vt 0.502181 0.956770
vt 0.543922 0.945757
vt 0.574479 0.915667
vt 0.585663 0.874564
vt 0.574479 0.833461
vt 0.543922 0.803371
vt 0.502181 0.792357
vt 0.625000 0.750000
vt 0.625000 1.000000
vt 0.416667 0.428665
vt 0.416667 0.539961
vt 0.479167 0.428665
vt 0.479167 0.539961
vt 0.437500 0.428665
vt 0.437500 0.539961
vt 0.458333 0.428665
vt 0.458333 0.539961
vt 0.125000 0.000000
vt 0.125000 0.250000
vt 0.625000 0.500000
vt 0.375000 0.750000
vt 0.429884 0.416540
vt 0.460440 0.446629
vt 0.502181 0.457643
vt 0.543922 0.446629
vt 0.574479 0.416540
vt 0.460440 0.803371
vt 0.429884 0.833461
vt 0.418700 0.874564
vt 0.429884 0.915667
vt 0.375000 1.000000
vn -0.089185 -0.983963 0.154473
vn -0.158177 -0.983179 0.091323
vn -0.056285 0.997886 0.032496
vn -0.089185 0.983963 0.154473
vn 0.024192 -0.998829 -0.041902
vn 0.063342 -0.997322 -0.036571
vn 0.052065 0.998191 -0.030060
vn 0.086594 0.984889 -0.149986
vn -0.055489 -0.998459 0.000000
vn -0.055497 0.998459 0.000000
vn 0.000000 -0.818632 -0.574318
vn 0.000000 0.998673 -0.051508
vn -0.056130 -0.997897 -0.032407
vn -0.157525 0.983318 -0.090947
vn -0.088332 -0.984271 -0.152995
vn -0.030707 0.998112 -0.053186
vn 0.387516 -0.839176 0.381596
vn 0.456516 -0.767792 -0.449542
vn 0.407664 0.820158 -0.401436
vn 0.397037 0.830363 0.390971
vn -0.278334 -0.920548 0.274082
vn -0.386472 0.840124 0.380568
vn 0.000000 -0.998628 0.052362
vn 0.000000 0.998628 0.052362
vn 0.050967 -0.998700 0.000000
vn 0.050966 0.998700 0.000000
vn 0.030728 -0.998110 0.053223
vn 0.030728 0.998110 0.053223
vn 0.052209 -0.998181 0.030143
vn 0.150772 0.984729 0.087048
vn -0.346766 -0.873586 -0.341469
vn -0.390330 0.836603 -0.384367
s 1
g pCube2
usemtl initialShadingGroup
f 1/1/1 2/2/2 3/3/3 4/4/4
f 5/5/5 6/6/6 7/7/7 8/8/8
f 2/9/2 9/10/9 10/11/10 3/12/3
f 11/13/11 5/5/5 8/8/8 12/14/12
f 9/10/9 13/15/13 14/16/14 10/11/10
f 15/17/15 11/13/11 12/14/12 16/18/16
f 13/15/13 15/17/15 16/18/16 14/16/14
f 17/19/17 18/20/18 19/21/19 20/22/20
f 21/23/21 17/19/17 20/22/20 22/24/22
f 14/26/14 20/22/20 10/25/10
f 5/33/5 11/34/11 17/42/17
f 25/43/23 1/1/1 4/4/4 26/44/24
f 6/6/6 27/45/25 23/46/26 7/7/7
f 28/47/27 25/43/23 26/44/24 29/48/28
f 27/45/25 30/49/29 31/50/30 23/46/26
f 30/49/29 28/47/27 29/48/28 31/50/30
f 32/51/31 21/23/21 22/24/22 24/52/32
f 24/32/32 19/53/19 18/41/18 32/54/31
f 31/55/30 24/32/32 23/31/26
f 32/54/31 18/41/18 25/40/23 28/60/27
f 29/56/28 24/32/32 31/55/30
f 26/57/24 19/53/19 24/32/32 29/56/28
f 22/24/22 12/28/12 8/29/8
f 4/58/4 19/53/19 26/57/24
f 3/59/3 19/53/19 4/58/4
f 20/22/20 19/53/19 3/59/3 10/25/10
f 16/27/16 20/22/20 14/26/14
f 22/24/22 20/22/20 16/27/16 12/28/12
f 22/24/22 8/29/8 7/30/7
f 22/24/22 7/30/7 23/31/26 24/32/32
f 17/42/17 11/34/11 15/35/15
f 17/42/17 15/35/15 13/36/13
f 17/42/17 13/36/13 9/37/9 18/41/18
f 18/41/18 9/37/9 2/38/2
f 18/41/18 2/38/2 1/39/1
f 18/41/18 1/39/1 25/40/23
f 21/64/21 6/63/6 5/33/5 17/42/17
f 21/64/21 27/62/25 6/63/6
f 32/54/31 30/61/29 27/62/25 21/64/21
f 32/54/31 28/60/27 30/61/29
g default
v 4.264969 0.092574 6.939196
v 4.770667 0.092574 6.939196
v 4.264969 0.439803 6.939196
v 4.770667 0.439803 6.939196
v 4.264969 0.439803 -7.477601
v 4.770667 0.439803 -7.477601
v 4.264969 0.092574 -7.477601
v 4.770667 0.092574 -7.477601
vt 0.375000 0.000000
vt 0.625000 0.000000
vt 0.375000 0.250000
vt 0.625000 0.250000
vt 0.375000 0.500000
vt 0.625000 0.500000
vt 0.375000 0.750000
vt 0.625000 0.750000
vt 0.375000 1.000000
vt 0.625000 1.000000
vt 0.875000 0.000000
vt 0.875000 0.250000
vt 0.125000 0.000000
vt 0.125000 0.250000
vn -0.565932 -0.824213 0.019851
vn 0.565932 -0.824213 0.019851
vn 0.565932 0.824213 0.019851
vn -0.565932 0.824213 0.019851
vn 0.565932 0.824213 -0.019851
vn -0.565932 0.824213 -0.019851
vn 0.565932 -0.824213 -0.019851
vn -0.565932 -0.824213 -0.019851
s 1
g pCube9 group1
usemtl initialShadingGroup
f 33/65/33 34/66/34 36/68/35 35/67/36
f 35/67/36 36/68/35 38/70/37 37/69/38
f 37/69/38 38/70/37 40/72/39 39/71/40
f 39/71/40 40/72/39 34/74/34 33/73/33
f 34/66/34 40/75/39 38/76/37 36/68/35
f 39/77/40 33/65/33 35/67/36 37/78/38
g default
v 2.735056 0.092574 6.939196
v 3.240754 0.092574 6.939196
v 2.735056 0.439803 6.939196
v 3.240754 0.439803 6.939196
v 2.735056 0.439803 -7.477601
v 3.240754 0.439803 -7.477601
v 2.735056 0.092574 -7.477601
v 3.240754 0.092574 -7.477601
vt 0.375000 0.000000
vt 0.625000 0.000000
vt 0.375000 0.250000
vt 0.625000 0.250000
vt 0.375000 0.500000
vt 0.625000 0.500000
vt 0.375000 0.750000
vt 0.625000 0.750000
vt 0.375000 1.000000
vt 0.625000 1.000000
vt 0.875000 0.000000
vt 0.875000 0.250000
vt 0.125000 0.000000
vt 0.125000 0.250000
vn -0.565932 -0.824213 0.019851
vn 0.565932 -0.824213 0.019851
vn 0.565932 0.824213 0.019851
vn -0.565932 0.824213 0.019851
vn 0.565932 0.824213 -0.019851
vn -0.565932 0.824213 -0.019851
vn 0.565932 -0.824213 -0.019851
vn -0.565932 -0.824213 -0.019851
s 1
g group1 pCube8
usemtl initialShadingGroup
f 41/79/41 42/80/42 44/82/43 43/81/44
f 43/81/44 44/82/43 46/84/45 45/83/46
f 45/83/46 46/84/45 48/86/47 47/85/48
f 47/85/48 48/86/47 42/88/42 41/87/41
f 42/80/42 48/89/47 46/90/45 44/82/43
f 47/91/48 41/79/41 43/81/44 45/92/46
g default
v 1.183489 0.092574 6.939196
v 1.689187 0.092574 6.939196
v 1.183489 0.439803 6.939196
v 1.689187 0.439803 6.939196
v 1.183489 0.439803 -7.477601
v 1.689187 0.439803 -7.477601
v 1.183489 0.092574 -7.477601
v 1.689187 0.092574 -7.477601
vt 0.375000 0.000000
vt 0.625000 0.000000
vt 0.375000 0.250000
vt 0.625000 0.250000
vt 0.375000 0.500000
vt 0.625000 0.500000
vt 0.375000 0.750000
vt 0.625000 0.750000
vt 0.375000 1.000000
vt 0.625000 1.000000
vt 0.875000 0.000000
vt 0.875000 0.250000
vt 0.125000 0.000000
vt 0.125000 0.250000
vn -0.565932 -0.824213 0.019851
vn 0.565932 -0.824213 0.019851
vn 0.565932 0.824213 0.019851
vn -0.565932 0.824213 0.019851
vn 0.565932 0.824213 -0.019851
vn -0.565932 0.824213 -0.019851
vn 0.565932 -0.824213 -0.019851
vn -0.565932 -0.824213 -0.019851
s 1
g group1 pCube7
usemtl initialShadingGroup
f 49/93/49 50/94/50 52/96/51 51/95/52
f 51/95/52 52/96/51 54/98/53 53/97/54
f 53/97/54 54/98/53 56/100/55 55/99/56
f 55/99/56 56/100/55 50/102/50 49/101/49
f 50/94/50 56/103/55 54/104/53 52/96/51
f 55/105/56 49/93/49 51/95/52 53/106/54
g default
v -0.326191 0.092574 6.939196
v 0.179507 0.092574 6.939196
v -0.326191 0.439803 6.939196
v 0.179507 0.439803 6.939196
v -0.326191 0.439803 -7.477601
v 0.179507 0.439803 -7.477601
v -0.326191 0.092574 -7.477601
v 0.179507 0.092574 -7.477601
vt 0.375000 0.000000
vt 0.625000 0.000000
vt 0.375000 0.250000
vt 0.625000 0.250000
vt 0.375000 0.500000
vt 0.625000 0.500000
vt 0.375000 0.750000
vt 0.625000 0.750000
vt 0.375000 1.000000
vt 0.625000 1.000000
vt 0.875000 0.000000
vt 0.875000 0.250000
vt 0.125000 0.000000
vt 0.125000 0.250000
vn -0.565932 -0.824213 0.019851
vn 0.565932 -0.824213 0.019851
vn 0.565932 0.824213 0.019851
vn -0.565932 0.824213 0.019851
vn 0.565932 0.824213 -0.019851
vn -0.565932 0.824213 -0.019851
vn 0.565932 -0.824213 -0.019851
vn -0.565932 -0.824213 -0.019851
s 1
g group1 pCube6
usemtl initialShadingGroup
f 57/107/57 58/108/58 60/110/59 59/109/60
f 59/109/60 60/110/59 62/112/61 61/111/62
f 61/111/62 62/112/61 64/114/63 63/113/64
f 63/113/64 64/114/63 58/116/58 57/115/57
f 58/108/58 64/117/63 62/118/61 60/110/59
f 63/119/64 57/107/57 59/109/60 61/120/62
g default
v -1.765730 0.092574 6.939196
v -1.260032 0.092574 6.939196
v -1.765730 0.439803 6.939196
v -1.260032 0.439803 6.939196
v -1.765730 0.439803 -7.477601
v -1.260032 0.439803 -7.477601
v -1.765730 0.092574 -7.477601
v -1.260032 0.092574 -7.477601
vt 0.375000 0.000000
vt 0.625000 0.000000
vt 0.375000 0.250000
vt 0.625000 0.250000
vt 0.375000 0.500000
vt 0.625000 0.500000
vt 0.375000 0.750000
vt 0.625000 0.750000
vt 0.375000 1.000000
vt 0.625000 1.000000
vt 0.875000 0.000000
vt 0.875000 0.250000
vt 0.125000 0.000000
vt 0.125000 0.250000
vn -0.565932 -0.824213 0.019851
vn 0.565932 -0.824213 0.019851
vn 0.565932 0.824213 0.019851
vn -0.565932 0.824213 0.019851
vn 0.565932 0.824213 -0.019851
vn -0.565932 0.824213 -0.019851
vn 0.565932 -0.824213 -0.019851
vn -0.565932 -0.824213 -0.019851
s 1
g group1 pCube5
usemtl initialShadingGroup
f 65/121/65 66/122/66 68/124/67 67/123/68
f 67/123/68 68/124/67 70/126/69 69/125/70
f 69/125/70 70/126/69 72/128/71 71/127/72
f 71/127/72 72/128/71 66/130/66 65/129/65
f 66/122/66 72/131/71 70/132/69 68/124/67
f 71/133/72 65/121/65 67/123/68 69/134/70
g default
v -3.190146 0.092574 6.939196
v -2.684448 0.092574 6.939196
v -3.190146 0.439803 6.939196
v -2.684448 0.439803 6.939196
v -3.190146 0.439803 -7.477601
v -2.684448 0.439803 -7.477601
v -3.190146 0.092574 -7.477601
v -2.684448 0.092574 -7.477601
vt 0.375000 0.000000
vt 0.625000 0.000000
vt 0.375000 0.250000
vt 0.625000 0.250000
vt 0.375000 0.500000
vt 0.625000 0.500000
vt 0.375000 0.750000
vt 0.625000 0.750000
vt 0.375000 1.000000
vt 0.625000 1.000000
vt 0.875000 0.000000
vt 0.875000 0.250000
vt 0.125000 0.000000
vt 0.125000 0.250000
vn -0.565932 -0.824213 0.019851
vn 0.565932 -0.824213 0.019851
vn 0.565932 0.824213 0.019851
vn -0.565932 0.824213 0.019851
vn 0.565932 0.824213 -0.019851
vn -0.565932 0.824213 -0.019851
vn 0.565932 -0.824213 -0.019851
vn -0.565932 -0.824213 -0.019851
s 1
g group1 pCube4
usemtl initialShadingGroup
f 73/135/73 74/136/74 76/138/75 75/137/76
f 75/137/76 76/138/75 78/140/77 77/139/78
f 77/139/78 78/140/77 80/142/79 79/141/80
f 79/141/80 80/142/79 74/144/74 73/143/73
f 74/136/74 80/145/79 78/146/77 76/138/75
f 79/147/80 73/135/73 75/137/76 77/148/78
g default
v -4.548344 0.092574 6.939196
v -4.042646 0.092574 6.939196
v -4.548344 0.439803 6.939196
v -4.042646 0.439803 6.939196
v -4.548344 0.439803 -7.477601
v -4.042646 0.439803 -7.477601
v -4.548344 0.092574 -7.477601
v -4.042646 0.092574 -7.477601
vt 0.375000 0.000000
vt 0.625000 0.000000
vt 0.375000 0.250000
vt 0.625000 0.250000
vt 0.375000 0.500000
vt 0.625000 0.500000
vt 0.375000 0.750000
vt 0.625000 0.750000
vt 0.375000 1.000000
vt 0.625000 1.000000
vt 0.875000 0.000000
vt 0.875000 0.250000
vt 0.125000 0.000000
vt 0.125000 0.250000
vn 0.000000 0.000000 1.000000
vn 0.000000 0.000000 1.000000
vn 0.000000 0.000000 1.000000
vn 0.000000 0.000000 1.000000
vn -0.566043 0.824376 0.000000
vn 0.566043 0.824376 0.000000
vn 0.565932 0.824213 -0.019851
vn -0.565932 0.824213 -0.019851
vn 0.565932 -0.824213 -0.019851
vn -0.565932 -0.824213 -0.019851
vn 0.566043 -0.824376 0.000000
vn -0.566043 -0.824376 0.000000
s off
g group1 pCube3
usemtl initialShadingGroup
f 81/149/81 82/150/82 84/152/83 83/151/84
s 1
f 83/151/85 84/152/86 86/154/87 85/153/88
f 85/153/88 86/154/87 88/156/89 87/155/90
f 87/155/90 88/156/89 82/158/91 81/157/92
f 82/150/91 88/159/89 86/160/87 84/152/86
f 87/161/90 81/149/92 83/151/85 85/162/88
